<svg version="1.1" xmlns="http://www.w3.org/2000/svg" viewBox="-58.15397884690704 -4.805377459296036 116.30795769381409 10.053314385628344" fill="none" stroke="black" stroke-width="0.6%" vector-effect="non-scaling-stroke">
    <path d="M -43.52495 -2.3433 L -35.2 -1.86435" />
    <path d="M -35.13284 -1.86549 L -34.41842 -1.82438 L -34.41842 -1.81939 L -21.0925 -1.05272" />
    <path d="M -21.02534 -1.05386 L -20.31091 -1.01275 L -20.31091 -1.00776 L -6.98499 -0.24109" />
    <path d="M -6.91783 -0.24223 L -6.2034 -0.20112 L -6.2034 -0.19613 L 2.19823 0.28724 L 2.19823 -0.4624 L 44.40424 -1.17484 L -1.31894 -3.80538 L -43.52495 -3.09294 L 2.19823 -0.4624" />
    <path d="M -43.52495 -2.3433 L -43.52495 -3.09294" />
    <path d="M -41.72753 -1.74917 L -41.72753 -1.75417 L -41.01311 -1.71307 L -41.01311 -1.70807 L -27.62003 -0.93754 L -27.62003 -0.94254 L -26.9056 -0.90144 L -26.9056 -0.89644 L -13.51252 -0.12591 L -13.51252 -0.13091 L -12.79809 -0.0898 L -12.79809 -0.08481 L 0.59499 0.68572 L 0.59499 0.68072 L 1.30941 0.72183 L 55.82551 -0.19841 L 55.82551 -0.19341 L 55.83504 -0.19286 L 55.83504 3.30544 L 57.15398 3.28318 L 57.15398 -0.21512 L 55.83504 -0.19286" />
    <path d="M -41.72753 -1.75417 L -35.13284 -1.86549" />
    <path d="M -41.01311 -1.71307 L -34.41842 -1.82438" />
    <path d="M -27.62003 -0.94254 L -21.02534 -1.05386" />
    <path d="M -26.9056 -0.90144 L -20.31091 -1.01275" />
    <path d="M -13.51252 -0.13091 L -6.91783 -0.24223" />
    <path d="M -12.79809 -0.0898 L -6.2034 -0.20112" />
    <path d="M 41.71801 -0.37986 L 41.71801 -0.01343" />
    <path d="M 2.19823 0.28724 L 44.40424 -0.4252 L 44.40424 -1.17484" />
    <path d="M -55.12062 -2.5197 L -41.72753 -1.74917 L -41.01311 -1.70807" />
    <path d="M -27.62003 -0.93754 L -26.9056 -0.89644" />
    <path d="M -13.51252 -0.12591 L -12.79809 -0.08481" />
    <path d="M 44.40424 -0.85049 L 55.04393 -0.23837" />
    <path d="M -57.15398 0.95976 L 0 4.24794 L 1.31894 4.22567 L 1.31894 0.72737 L 0 0.74964 L 0 4.24794" />
    <path d="M -55.12062 -2.5247 L -43.52495 -2.72043" />
    <path d="M -55.12062 -2.5247 L -55.12062 -2.5197" />
    <path d="M -55.83504 -2.5608 L -55.12062 -2.5197" />
    <path d="M 0.59499 0.68572 L 1.30941 0.72682 L 1.31894 0.72737" />
    <path d="M -57.15398 -2.53854 L 0 0.74964" />
    <path d="M -55.83504 -2.5608 L -57.15398 -2.53854 L -57.15398 0.95976" />
    <path d="M 44.40424 -0.94864 L 57.15398 -0.21512" />
    <path d="M 55.82551 3.30489 L 55.83504 3.30544" />
    <path d="M 0.59499 0.68072 L 55.11109 -0.23951 L 55.82551 -0.19841" />
    <path d="M 1.30941 4.23012 L 1.25178 4.22681" />
    <path d="M 1.30941 4.22583 L 1.30941 4.23012 L 55.82551 3.30989" />
    <path d="M -55.83504 -2.5658 L -43.52495 -2.77359" />
    <path d="M -55.83504 -2.5608 L -55.83504 -2.5658 L -55.12062 -2.5247" />
    <path d="M 1.30941 0.72183 L 1.30941 0.72682" />
    <path d="M 55.82551 -0.19341 L 55.82551 3.30489 L 55.82551 3.30989" />
</svg>