<svg version="1.1" xmlns="http://www.w3.org/2000/svg" viewBox="-58.15397884690706 -4.503842424159814 116.30795769381409 9.00768484831962" fill="none" stroke="black" stroke-width="0.6%" vector-effect="non-scaling-stroke">
    <path d="M -0.60451 -3.45156 L -0.60451 -0.10467" />
    <path d="M 1.31894 0.13858 L 55.83504 2.72624 L 57.15398 2.70788 L 57.15398 -0.79097 L 55.83504 -0.7726 L 55.83504 2.72624" />
    <path d="M -0.60451 -3.45156 L 55.83504 -0.7726" />
    <path d="M -55.12062 -2.69733 L -0.60451 -3.45656 L -0.60451 -3.45156" />
    <path d="M -55.12062 -2.69733 L -55.12062 -2.69233 L 1.31894 -0.01337 L 0 0.005 L 0 3.50384 L 1.31894 3.48547 L 1.31894 -0.01337" />
    <path d="M 0 -3.50384 L 57.15398 -0.79097" />
    <path d="M 0 -3.50384 L -1.23752 -3.48661" />
    <path d="M -55.83504 -2.73124 L -1.31894 -3.49047 L -0.60451 -3.45656" />
    <path d="M -55.83504 -2.73124 L -55.12062 -2.69733" />
    <path d="M -55.83504 -2.72624 L -55.83504 -2.73124" />
    <path d="M -55.83504 -2.72624 L -55.12062 -2.69233" />
    <path d="M -55.83504 -2.72624 L -57.15398 -2.70788 L 0 0.005" />
    <path d="M -57.15398 -2.70788 L -57.15398 0.79097 L 0 3.50384" />
</svg>